<svg width="590" height="495" viewBox="0 0 590 495" fill="none" xmlns="http://www.w3.org/2000/svg">
<g clip-path="url(#clip0_101_795)">
<path d="M165.681 112C189.745 112 209.252 92.4534 209.252 68.3419C209.252 44.2303 189.745 24.684 165.681 24.684C141.617 24.684 122.109 44.2303 122.109 68.3419C122.109 92.4534 141.617 112 165.681 112Z" fill="#389EEA"/>
<path d="M420.112 81.0709H367.847V33.4642L420.112 81.0709Z" fill="#3F3D56"/>
<path d="M426.218 79.5123H163.295V443.475H426.218V79.5123Z" fill="#E6E6E6"/>
<path d="M220.459 105.031H189.527V170.339H220.459V105.031Z" fill="white"/>
<path d="M268.304 105.031H237.372V170.339H268.304V105.031Z" fill="white"/>
<path d="M216.382 197.596H185.45V262.904H216.382V197.596Z" fill="white"/>
<path d="M268.304 197.596H237.372V262.904H268.304V197.596Z" fill="white"/>
<path d="M216.382 283.243H185.45V348.551H216.382V283.243Z" fill="white"/>
<path d="M267.139 282.076H236.207V347.384H267.139V282.076Z" fill="white"/>
<path d="M312.097 378.314H281.165V443.621H312.097V378.314Z" fill="#CCCCCC"/>
<path d="M358.831 282.076H327.898V347.384H358.831V282.076Z" fill="white"/>
<path d="M410.752 282.076H379.82V347.384H410.752V282.076Z" fill="white"/>
<path d="M359.995 196.905H329.063V262.212H359.995V196.905Z" fill="white"/>
<path d="M411.917 196.905H380.985V262.212H411.917V196.905Z" fill="white"/>
<path d="M359.995 105.031H329.063V170.339H359.995V105.031Z" fill="white"/>
<path d="M411.917 105.031H380.985V170.339H411.917V105.031Z" fill="white"/>
<path d="M426.218 163.637H163.295V173.599H426.218V163.637Z" fill="#3F3D56"/>
<path d="M426.218 241.121H163.295V246.655H426.218V241.121Z" fill="#3F3D56"/>
<path d="M426.218 223.41H163.295V228.945H426.218V223.41Z" fill="#3F3D56"/>
<path d="M189.256 352.918V308.642H183.733V352.918H189.256Z" fill="#3F3D56"/>
<path d="M220.188 352.918V308.642H214.665V352.918H220.188Z" fill="#3F3D56"/>
<path d="M251.121 352.918V308.642H245.597V352.918H251.121Z" fill="#3F3D56"/>
<path d="M282.053 352.918V308.642H276.529V352.918H282.053Z" fill="#3F3D56"/>
<path d="M312.985 352.918V308.642H307.461V352.918H312.985Z" fill="#3F3D56"/>
<path d="M343.917 352.918V308.642H338.393V352.918H343.917Z" fill="#3F3D56"/>
<path d="M374.849 352.918V308.642H369.326V352.918H374.849Z" fill="#3F3D56"/>
<path d="M405.781 352.918V308.642H400.258V352.918H405.781Z" fill="#3F3D56"/>
<path d="M189.809 268.793V224.517H184.285V268.793H189.809Z" fill="#3F3D56"/>
<path d="M220.741 268.793V224.517H215.217V268.793H220.741Z" fill="#3F3D56"/>
<path d="M251.673 268.793V224.517H246.149V268.793H251.673Z" fill="#3F3D56"/>
<path d="M282.605 268.793V224.517H277.081V268.793H282.605Z" fill="#3F3D56"/>
<path d="M313.537 268.793V224.517H308.014V268.793H313.537Z" fill="#3F3D56"/>
<path d="M344.469 268.793V224.517H338.946V268.793H344.469Z" fill="#3F3D56"/>
<path d="M375.401 268.793V224.517H369.878V268.793H375.401Z" fill="#3F3D56"/>
<path d="M406.333 268.793V224.517H400.81V268.793H406.333Z" fill="#3F3D56"/>
<path d="M189.809 170.279V126.002H184.285V170.279H189.809Z" fill="#3F3D56"/>
<path d="M220.741 170.279V126.002H215.217V170.279H220.741Z" fill="#3F3D56"/>
<path d="M251.673 170.279V126.002H246.149V170.279H251.673Z" fill="#3F3D56"/>
<path d="M282.605 170.279V126.002H277.081V170.279H282.605Z" fill="#3F3D56"/>
<path d="M313.537 170.279V126.002H308.014V170.279H313.537Z" fill="#3F3D56"/>
<path d="M344.469 170.279V126.002H338.946V170.279H344.469Z" fill="#3F3D56"/>
<path d="M375.401 170.279V126.002H369.878V170.279H375.401Z" fill="#3F3D56"/>
<path d="M406.333 170.279V126.002H400.81V170.279H406.333Z" fill="#3F3D56"/>
<path d="M426.218 141.499H163.295V147.034H426.218V141.499Z" fill="#3F3D56"/>
<path d="M426.218 123.789H163.295V129.323H426.218V123.789Z" fill="#3F3D56"/>
<path d="M426.218 259.938H163.295V269.9H426.218V259.938Z" fill="#3F3D56"/>
<path d="M438.317 75.4171H151.197V90.2623H438.317V75.4171Z" fill="#3F3D56"/>
<path d="M220.517 392.436V378.314H203.604V392.436H219.108H220.517Z" fill="white"/>
<path d="M219.108 403.733H203.604V417.855H220.517V403.733H219.108Z" fill="white"/>
<path d="M248.705 378.314H231.792V392.436H248.705V378.314Z" fill="white"/>
<path d="M248.705 403.733H231.792V417.855H248.705V403.733Z" fill="white"/>
<path d="M358.458 392.436V378.314H341.545V392.436H357.048H358.458Z" fill="white"/>
<path d="M357.048 403.733H341.545V417.855H358.458V403.733H357.048Z" fill="white"/>
<path d="M386.645 378.314H369.732V392.436H386.645V378.314Z" fill="white"/>
<path d="M386.645 403.733H369.732V417.855H386.645V403.733Z" fill="white"/>
<path d="M426.218 344.063H163.295V354.025H426.218V344.063Z" fill="#3F3D56"/>
<path d="M426.218 326.353H163.295V331.887H426.218V326.353Z" fill="#3F3D56"/>
<path d="M426.218 308.642H163.295V314.177H426.218V308.642Z" fill="#3F3D56"/>
<path d="M242.893 438.731C242.894 438.423 242.89 438.117 242.881 437.811C242.644 429.652 234.566 427.439 230.235 431.302C228.869 430.112 227.119 429.458 225.309 429.458C223.499 429.458 221.75 430.112 220.384 431.302C216.034 427.5 208.117 429.555 207.856 437.622C207.846 437.927 207.84 438.234 207.84 438.542C207.853 440.238 207.956 441.933 208.151 443.618H242.587C242.774 441.996 242.876 440.365 242.893 438.731Z" fill="#389EEA"/>
<path d="M379.756 438.731C379.757 438.423 379.752 438.117 379.743 437.811C379.507 429.652 371.429 427.439 367.098 431.302C365.731 430.112 363.982 429.458 362.172 429.458C360.362 429.458 358.613 430.112 357.246 431.302C352.897 427.5 344.98 429.555 344.718 437.622C344.708 437.927 344.703 438.234 344.703 438.542C344.715 440.238 344.819 441.933 345.013 443.618H379.449C379.637 441.996 379.739 440.365 379.756 438.731Z" fill="#389EEA"/>
<path d="M568.617 444.17H563.292L565.066 339.932H566.842L568.617 444.17Z" fill="#E6E6E6"/>
<path d="M573.055 274.306L581.652 260.994C579.102 253.937 576.157 247.03 572.832 240.306L567.273 244.805L571.674 237.989C567.48 229.716 564.179 224.503 564.179 224.503C564.179 224.503 546.938 251.726 541.178 280.549L552.209 297.632L539.997 287.748C539.562 291.106 539.338 294.488 539.327 297.873C539.327 332.01 550.453 359.682 564.179 359.682C577.904 359.682 589.031 332.01 589.031 297.873C589.031 287.291 586.642 276.219 583.346 265.977L573.055 274.306Z" fill="#E6E6E6"/>
<path d="M549.865 298.372H436.247V382.196H436.316V398.884L452.971 382.196H549.865V298.372Z" fill="#389EEA"/>
<path d="M406.183 477.393H305.381V481.385H406.183V477.393Z" fill="#E6E6E6"/>
<path d="M590 477.393H488.653V481.385H590V477.393Z" fill="#E6E6E6"/>
<path d="M223.042 477.393H122.109V481.385H223.042V477.393Z" fill="#E6E6E6"/>
<path d="M589.586 443.531H0V444.644H589.586V443.531Z" fill="#3F3D56"/>
<path d="M462.425 462.755L474.295 462.761L474.296 460.873L462.426 460.867L462.425 462.755Z" fill="#3F3D56"/>
<path d="M376.604 461.293L379.053 461.86L472.128 461.91L472.965 459.956C474.425 456.605 474.926 452.913 474.412 449.292C474.012 446.594 473.007 443.912 470.725 442.748L466.595 415.183L415.101 415.09L395.178 431.191C395.178 431.191 385.78 431.022 380.675 437.391C378.833 439.759 377.745 442.628 377.554 445.624L377.352 448.937L376.604 461.293Z" fill="#389EEA"/>
<path d="M397.047 472.348C403.394 472.348 408.54 467.192 408.54 460.832C408.54 454.472 403.394 449.316 397.047 449.316C390.699 449.316 385.554 454.472 385.554 460.832C385.554 467.192 390.699 472.348 397.047 472.348Z" fill="#3F3D56"/>
<path d="M397.047 466.893C400.387 466.893 403.096 464.179 403.096 460.832C403.096 457.484 400.387 454.771 397.047 454.771C393.706 454.771 390.998 457.484 390.998 460.832C390.998 464.179 393.706 466.893 397.047 466.893Z" fill="#CCCCCC"/>
<path d="M453.759 472.378C460.106 472.378 465.252 467.222 465.252 460.862C465.252 454.502 460.106 449.346 453.759 449.346C447.411 449.346 442.266 454.502 442.266 460.862C442.266 467.222 447.411 472.378 453.759 472.378Z" fill="#3F3D56"/>
<path d="M453.759 466.923C457.1 466.923 459.808 464.209 459.808 460.862C459.808 457.515 457.1 454.801 453.759 454.801C450.418 454.801 447.71 457.515 447.71 460.862C447.71 464.209 450.418 466.923 453.759 466.923Z" fill="#CCCCCC"/>
<path d="M403.094 429.309L430.897 429.321H434.29L440.02 429.325V428.906L440.024 423.858L440.028 418.189H436.217L432.822 418.185L426.811 418.181H423.417L416.477 418.177L403.094 429.309Z" fill="white"/>
<path d="M444.544 429.329L459.238 429.337L459.242 426.448V421.4L459.246 418.201H457.095L453.701 418.197L444.548 418.193L444.544 429.329Z" fill="white"/>
<path d="M438.129 441.222L440.013 441.223L440.015 437.636L438.13 437.635L438.129 441.222Z" fill="#3F3D56"/>
<path d="M410.629 434.411L410.63 432.523L407.05 432.521L407.049 434.409L410.629 434.411Z" fill="#3F3D56"/>
<path d="M409.308 433.351L409.101 433.351C408.056 433.35 407.055 432.934 406.317 432.194C405.579 431.453 405.165 430.45 405.165 429.403C405.166 428.357 405.581 427.353 406.32 426.614C407.059 425.874 408.061 425.459 409.105 425.46L409.312 425.46L409.308 433.351Z" fill="#3F3D56"/>
<path d="M377.353 448.937C378.777 449.092 380.211 448.739 381.401 447.939C382.592 447.139 383.462 445.943 383.859 444.564C384.256 443.184 384.154 441.708 383.572 440.396C382.989 439.083 381.963 438.019 380.675 437.391C378.833 439.759 377.746 442.628 377.554 445.624L377.353 448.937Z" fill="#3F3D56"/>
<path d="M432.822 418.185L440.02 428.906L440.024 423.858L436.217 418.189L432.822 418.185Z" fill="#F2F2F2"/>
<path d="M453.701 418.197L459.242 426.448V421.4L457.095 418.201L453.701 418.197Z" fill="#F2F2F2"/>
<path d="M423.417 418.181L430.897 429.321H434.29L426.811 418.181H423.417Z" fill="#F2F2F2"/>
<path d="M272.515 0.697381L272.439 0.7393C271.609 1.19386 270.679 1.43368 269.734 1.437C268.788 1.44033 267.857 1.20705 267.024 0.758326C266.976 0.732391 266.929 0.706781 266.881 0.681498C266.049 0.236183 265.119 0.00479693 264.175 0.00806217C263.231 0.0113274 262.303 0.249144 261.473 0.700209L261.402 0.7393C260.572 1.19386 259.642 1.43368 258.697 1.437C257.752 1.44033 256.82 1.20705 255.988 0.758326C255.938 0.731401 255.888 0.704827 255.839 0.678599C255.016 0.235326 254.097 0.00252048 253.163 0.000864161C252.228 -0.000792161 251.308 0.228754 250.484 0.669107C247.966 2.02797 244.561 4.35129 244.576 6.9751C244.577 7.07886 244.583 7.18252 244.594 7.28569C244.887 10.0105 253.757 10.7048 258.629 9.42068C262.261 10.2511 266.034 10.2511 269.666 9.42068C274.518 10.7254 283.568 9.9779 283.833 7.22179C283.843 7.11853 283.847 7.01482 283.847 6.91108C283.832 4.28584 280.397 1.98687 277.863 0.647137C277.037 0.213779 276.116 -0.00837837 275.183 0.000387001C274.25 0.00915237 273.334 0.248567 272.515 0.697381Z" fill="#E6E6E6"/>
<path d="M516.878 90.6625L516.801 90.7044C515.971 91.159 515.042 91.3988 514.096 91.4021C513.151 91.4055 512.219 91.1722 511.387 90.7235C511.339 90.6975 511.291 90.6719 511.244 90.6466C510.411 90.2013 509.481 89.9699 508.537 89.9732C507.593 89.9765 506.665 90.2143 505.836 90.6653L505.764 90.7044C504.934 91.159 504.005 91.3988 503.059 91.4021C502.114 91.4055 501.183 91.1722 500.35 90.7235C500.3 90.6965 500.251 90.67 500.201 90.6437C499.379 90.2005 498.459 89.9676 497.525 89.966C496.591 89.9643 495.671 90.1939 494.846 90.6342C492.328 91.9931 488.924 94.3164 488.939 96.9402C488.939 97.044 488.945 97.1477 488.956 97.2508C489.249 99.9757 498.119 100.67 502.992 99.3858C506.624 100.216 510.396 100.216 514.028 99.3858C518.88 100.691 527.931 99.943 528.195 97.1869C528.205 97.0837 528.21 96.9799 528.209 96.8762C528.194 94.251 524.76 91.952 522.226 90.6123C521.399 90.1789 520.478 89.9567 519.545 89.9655C518.612 89.9743 517.696 90.2137 516.878 90.6625Z" fill="#E6E6E6"/>
<path d="M88.9582 95.6846L88.8814 95.7265C88.0519 96.181 87.1222 96.4209 86.1767 96.4242C85.2313 96.4275 84.3 96.1942 83.4673 95.7455C83.4193 95.7196 83.3716 95.694 83.3242 95.6687C82.4915 95.2234 81.5616 94.992 80.6178 94.9952C79.674 94.9985 78.7457 95.2363 77.9162 95.6874L77.8445 95.7265C77.015 96.181 76.0854 96.4209 75.1399 96.4242C74.1945 96.4275 73.2632 96.1942 72.4305 95.7455C72.3807 95.7186 72.3311 95.692 72.2819 95.6658C71.4591 95.2225 70.5397 94.9897 69.6055 94.988C68.6713 94.9864 67.7511 95.2159 66.9268 95.6563C64.4085 97.0151 61.0041 99.3385 61.0191 101.962C61.0197 102.066 61.0255 102.17 61.0367 102.273C61.3295 104.998 70.1994 105.692 75.0721 104.408C78.7044 105.238 82.4767 105.238 86.1089 104.408C90.9608 105.713 100.011 104.965 100.276 102.209C100.286 102.106 100.29 102.002 100.29 101.898C100.275 99.273 96.8403 96.974 94.3062 95.6343C93.4795 95.201 92.5588 94.9788 91.6259 94.9876C90.6929 94.9963 89.7766 95.2358 88.9582 95.6846Z" fill="#E6E6E6"/>
<path d="M73.1454 483.492H61.2754V485.38H73.1454V483.492Z" fill="#3F3D56"/>
<path d="M158.967 483.915L156.518 484.482L63.4424 484.532L62.6054 482.578C61.1457 479.227 60.6447 475.535 61.1583 471.914C61.5592 469.216 62.5637 466.534 64.8452 465.37L68.9756 437.805L120.47 437.712L140.393 453.813C140.393 453.813 149.79 453.644 154.896 460.013C156.738 462.381 157.825 465.25 158.017 468.246L158.218 471.559L158.967 483.915Z" fill="#389EEA"/>
<path d="M138.524 494.97C144.871 494.97 150.017 489.814 150.017 483.454C150.017 477.094 144.871 471.938 138.524 471.938C132.176 471.938 127.031 477.094 127.031 483.454C127.031 489.814 132.176 494.97 138.524 494.97Z" fill="#3F3D56"/>
<path d="M138.524 489.515C141.865 489.515 144.573 486.801 144.573 483.454C144.573 480.106 141.865 477.393 138.524 477.393C135.183 477.393 132.475 480.106 132.475 483.454C132.475 486.801 135.183 489.515 138.524 489.515Z" fill="#CCCCCC"/>
<path d="M81.812 495C88.1595 495 93.3052 489.844 93.3052 483.484C93.3052 477.124 88.1595 471.968 81.812 471.968C75.4645 471.968 70.3188 477.124 70.3188 483.484C70.3188 489.844 75.4645 495 81.812 495Z" fill="#3F3D56"/>
<path d="M81.8122 489.545C85.153 489.545 87.8612 486.831 87.8612 483.484C87.8612 480.137 85.153 477.423 81.8122 477.423C78.4714 477.423 75.7632 480.137 75.7632 483.484C75.7632 486.831 78.4714 489.545 81.8122 489.545Z" fill="#CCCCCC"/>
<path d="M132.477 451.931L104.674 451.944H101.28L95.5505 451.948V451.528L95.5465 446.48L95.5425 440.811H99.3547L102.749 440.806L108.76 440.803H112.154L119.094 440.799L132.477 451.931Z" fill="white"/>
<path d="M91.0263 451.952L76.3327 451.96L76.3287 449.071V444.022L76.3247 440.823H78.4762L81.87 440.819L91.0223 440.815L91.0263 451.952Z" fill="white"/>
<path d="M97.4388 460.256H95.5547V463.842H97.4388V460.256Z" fill="#3F3D56"/>
<path d="M128.524 457.029L128.523 455.141L124.944 455.143L124.945 457.031L128.524 457.029Z" fill="#3F3D56"/>
<path d="M126.261 448.081H126.468C126.985 448.081 127.497 448.183 127.975 448.381C128.453 448.579 128.887 448.87 129.252 449.236C129.618 449.603 129.908 450.038 130.106 450.516C130.304 450.995 130.406 451.508 130.406 452.026C130.406 453.073 129.991 454.076 129.252 454.816C128.514 455.556 127.512 455.972 126.468 455.972H126.261L126.261 448.081Z" fill="#3F3D56"/>
<path d="M158.218 471.559C156.793 471.714 155.36 471.361 154.169 470.561C152.979 469.761 152.109 468.566 151.712 467.186C151.315 465.806 151.416 464.33 151.999 463.018C152.581 461.705 153.607 460.641 154.896 460.013C156.738 462.381 157.825 465.25 158.017 468.246L158.218 471.559Z" fill="#3F3D56"/>
<path d="M102.748 440.807L95.5504 451.529L95.5464 446.48L99.3546 440.811L102.748 440.807Z" fill="#F2F2F2"/>
<path d="M81.8699 440.819L76.3286 449.071V444.022L78.4761 440.823L81.8699 440.819Z" fill="#F2F2F2"/>
<path d="M112.154 440.802L104.674 451.944H101.28L108.76 440.802H112.154Z" fill="#F2F2F2"/>
<path d="M489.075 358.149L474.566 339.458L483.004 332.882L489.873 341.732L513.081 317.186L520.841 324.553L489.075 358.149Z" fill="white"/>
<path d="M4.20996 319.581H117.828V403.405H117.759V420.094L101.103 403.405H4.20996V319.581Z" fill="#389EEA"/>
<path d="M57.7986 381.355L43.2896 362.664L51.7274 356.088L58.5967 364.938L81.8039 340.392L89.5644 347.758L57.7986 381.355Z" fill="white"/>
</g>
<defs>
<clipPath id="clip0_101_795">
<rect width="590" height="495" fill="white"/>
</clipPath>
</defs>
</svg>
